<svg xmlns="http://www.w3.org/2000/svg" width="41" height="54" viewBox="0 0 41 54">
  <g id="Group_303" data-name="Group 303" transform="translate(-940 -4890)">
    <g id="Layer_2" data-name="Layer 2" transform="translate(981.409 4889.727) rotate(90)" opacity="0.5">
      <g id="invisible_box" data-name="invisible box" transform="translate(0 0)">
        <rect id="Rectangle_135" data-name="Rectangle 135" width="42" height="41" transform="translate(0.273 0.409)" fill="none"/>
      </g>
      <g id="icons_Q2" data-name="icons Q2" transform="translate(14.128 9.103)">
        <path id="Path_21" data-name="Path 21" d="M9.48,11.806.54,20.746a1.6,1.6,0,0,0,.169,2.53,1.771,1.771,0,0,0,2.277-.169l10.036-10.12a1.6,1.6,0,0,0,0-2.361L2.986.505A1.771,1.771,0,0,0,.709.336,1.6,1.6,0,0,0,.54,2.867Z" fill="#fff"/>
      </g>
    </g>
    <g id="Layer_2-2" data-name="Layer 2" transform="translate(981.409 4902.455) rotate(90)" opacity="0.7">
      <g id="invisible_box-2" data-name="invisible box" transform="translate(0 0)">
        <rect id="Rectangle_135-2" data-name="Rectangle 135" width="42" height="41" transform="translate(-0.455 0.409)" fill="none"/>
      </g>
      <g id="icons_Q2-2" data-name="icons Q2" transform="translate(14.128 9.103)">
        <path id="Path_21-2" data-name="Path 21" d="M9.48,11.806.54,20.746a1.6,1.6,0,0,0,.169,2.53,1.771,1.771,0,0,0,2.277-.169l10.036-10.12a1.6,1.6,0,0,0,0-2.361L2.986.505A1.771,1.771,0,0,0,.709.336,1.6,1.6,0,0,0,.54,2.867Z" fill="#fff"/>
      </g>
    </g>
  </g>
</svg>
