<svg xmlns="http://www.w3.org/2000/svg" width="20" height="20" viewBox="0 0 20 20">
  <g id="Layer_2" data-name="Layer 2" transform="translate(0.233)">
    <g id="invisible_box" data-name="invisible box">
      <rect id="Rectangle_18203" data-name="Rectangle 18203" width="20" height="20" transform="translate(-0.233)" fill="none"/>
    </g>
    <g id="icons_Q2" data-name="icons Q2" transform="translate(2.471 4.118)">
      <g id="Group_22259" data-name="Group 22259">
        <path id="Path_107" data-name="Path 107" d="M20.825,10.824a.824.824,0,0,1-.824.824H6.824A.824.824,0,0,1,6,10.824H6A.824.824,0,0,1,6.824,10H20A.824.824,0,0,1,20.825,10.824Z" transform="translate(-6 -10)" fill="#fff"/>
        <path id="Path_108" data-name="Path 108" d="M20.825,22.824a.824.824,0,0,1-.824.824H6.824A.824.824,0,0,1,6,22.824H6A.824.824,0,0,1,6.824,22H20A.824.824,0,0,1,20.825,22.824Z" transform="translate(-6 -17.058)" fill="#fff"/>
        <path id="Path_109" data-name="Path 109" d="M20.825,34.824a.824.824,0,0,1-.824.824H6.824A.824.824,0,0,1,6,34.824H6A.824.824,0,0,1,6.824,34H20A.824.824,0,0,1,20.825,34.824Z" transform="translate(-6 -24.117)" fill="#fff"/>
      </g>
    </g>
  </g>
</svg>
